<?xml version="1.0" encoding="UTF-8" standalone="no"?>
<!-- Generator: Adobe Illustrator 17.1.0, SVG Export Plug-In . SVG Version: 6.00 Build 0)  -->

<svg
   xmlns:dc="http://purl.org/dc/elements/1.1/"
   xmlns:cc="http://creativecommons.org/ns#"
   xmlns:rdf="http://www.w3.org/1999/02/22-rdf-syntax-ns#"
   xmlns:svg="http://www.w3.org/2000/svg"
   xmlns="http://www.w3.org/2000/svg"
   xmlns:sodipodi="http://sodipodi.sourceforge.net/DTD/sodipodi-0.dtd"
   xmlns:inkscape="http://www.inkscape.org/namespaces/inkscape"
   version="1.1"
   id="Capa_1"
   x="0px"
   y="0px"
   viewBox="0 0 226.969 226.969"
   style="enable-background:new 0 0 226.969 226.969;"
   xml:space="preserve"
   sodipodi:docname="logo.svg"
   inkscape:version="0.92.3 (2405546, 2018-03-11)"><metadata
   id="metadata43"><rdf:RDF><cc:Work
       rdf:about=""><dc:format>image/svg+xml</dc:format><dc:type
         rdf:resource="http://purl.org/dc/dcmitype/StillImage" /></cc:Work></rdf:RDF></metadata><defs
   id="defs41">
	
	
</defs><sodipodi:namedview
   pagecolor="#ffffff"
   bordercolor="#666666"
   borderopacity="1"
   objecttolerance="10"
   gridtolerance="10"
   guidetolerance="10"
   inkscape:pageopacity="0"
   inkscape:pageshadow="2"
   inkscape:window-width="1920"
   inkscape:window-height="1018"
   id="namedview39"
   showgrid="false"
   inkscape:zoom="1.4704846"
   inkscape:cx="252.94592"
   inkscape:cy="139.64225"
   inkscape:window-x="1080"
   inkscape:window-y="917"
   inkscape:window-maximized="1"
   inkscape:current-layer="Capa_1" />
<path
   inkscape:connector-curvature="0"
   id="path2"
   d="m 217.289,83.307 c -1.024,0 -2.075,0.146 -3.124,0.436 L 203.142,86.779 191.49,58.398 C 187.999,49.892 177.677,42.971 168.481,42.971 h -7.753 V 19.442 c 0,-4.136 -3.364,-7.5 -7.5,-7.5 H 73.742 c -4.136,0 -7.5,3.364 -7.5,7.5 v 23.529 h -7.913 c -9.195,0 -19.518,6.92 -23.009,15.426 L 23.684,86.739 12.805,83.742 C 11.756,83.453 10.704,83.306 9.681,83.306 4.072,83.307 0,87.593 0,93.497 v 6.032 c 0,6.893 5.608,12.5 12.5,12.5 h 0.802 l -1.664,4.052 c -3.244,7.903 -5.884,21.283 -5.884,29.825 v 56.621 c 0,6.893 5.607,12.5 12.5,12.5 h 15.027 c 6.893,0 12.5,-5.607 12.5,-12.5 V 188.611 H 181.03 v 13.916 c 0,6.893 5.608,12.5 12.5,12.5 h 15.024 c 6.893,0 12.5,-5.607 12.5,-12.5 v -56.621 c 0,-8.542 -2.64,-21.922 -5.884,-29.825 l -1.664,-4.052 h 0.963 c 6.893,0 12.5,-5.607 12.5,-12.5 v -6.032 c 0,-5.904 -4.071,-10.19 -9.68,-10.19 z M 143.612,21.944 c 0,-0.165 0.135,-0.3 0.3,-0.3 h 5.778 c 0.165,0 0.3,0.135 0.3,0.3 v 20.797 c 0,0.1 -0.057,0.175 -0.132,0.23 h -6.114 c -0.075,-0.055 -0.132,-0.13 -0.132,-0.23 z m -41.44,-0.3 h 6.943 c 0.165,0 0.35,0.125 0.411,0.279 l 8.241,20.716 7.554,-9.345 c 0.104,-0.128 0.114,-0.346 0.023,-0.483 l -7.25,-10.917 c -0.092,-0.138 -0.031,-0.25 0.134,-0.25 h 6.421 c 0.165,0 0.371,0.115 0.457,0.255 l 3.737,6.062 c 0.086,0.141 0.228,0.141 0.314,0 l 3.74,-6.062 c 0.086,-0.141 0.292,-0.255 0.457,-0.255 h 6.424 c 0.165,0 0.225,0.112 0.134,0.25 l -7.256,10.917 c -0.092,0.138 -0.081,0.355 0.022,0.483 l 7.692,9.514 c 0.052,0.063 0.064,0.122 0.045,0.164 h -6.818 c -0.09,-0.047 -0.171,-0.11 -0.218,-0.185 l -4.221,-6.755 c -0.088,-0.14 -0.23,-0.14 -0.318,0 l -4.212,6.755 c -0.047,0.075 -0.128,0.138 -0.218,0.185 h -12.847 c -0.088,-0.052 -0.164,-0.124 -0.193,-0.215 l -1.416,-4.336 c -0.051,-0.157 -0.228,-0.285 -0.393,-0.285 h -7.87 c -0.165,0 -0.345,0.127 -0.399,0.283 l -1.526,4.34 c -0.032,0.09 -0.108,0.162 -0.197,0.213 H 93.39 c -0.049,-0.051 -0.07,-0.121 -0.035,-0.208 l 8.404,-20.84 c 0.063,-0.155 0.248,-0.28 0.413,-0.28 z m -20.32,21.097 v -16.52 c 0,-0.165 -0.135,-0.3 -0.3,-0.3 h -6.945 c -0.165,0 -0.3,-0.135 -0.3,-0.3 v -3.678 c 0,-0.165 0.135,-0.3 0.3,-0.3 h 20.91 c 0.165,0 0.3,0.135 0.3,0.3 v 3.678 c 0,0.165 -0.135,0.3 -0.3,0.3 h -6.985 c -0.165,0 -0.3,0.135 -0.3,0.3 v 16.52 c 0,0.1 -0.057,0.175 -0.132,0.23 h -6.116 c -0.075,-0.054 -0.132,-0.13 -0.132,-0.23 z M 32.516,105.062 50.221,61.933 c 2.089,-5.088 8.298,-9.251 13.798,-9.251 h 98.772 c 5.5,0 11.709,4.163 13.798,9.251 l 17.705,43.129 c 2.089,5.088 -0.702,9.251 -6.202,9.251 H 38.718 c -5.5,0 -8.291,-4.163 -6.202,-9.251 z m 39.996,55.542 c 0,2.75 -2.25,5 -5,5 H 33.718 c -2.75,0 -5,-2.25 -5,-5 v -16.032 c 0,-2.75 2.25,-5 5,-5 h 33.794 c 2.75,0 5,2.25 5,5 z m 125.256,0 c 0,2.75 -2.25,5 -5,5 h -33.794 c -2.75,0 -5,-2.25 -5,-5 v -16.032 c 0,-2.75 2.25,-5 5,-5 h 33.794 c 2.75,0 5,2.25 5,5 z"
   style="fill:#333333;fill-opacity:1" /><path
   inkscape:connector-curvature="0"
   id="path4"
   d="m 108.157,33.858 c 0.165,0 0.246,-0.124 0.181,-0.275 l -2.492,-5.751 c -0.066,-0.151 -0.176,-0.153 -0.244,-0.003 l -2.639,5.757 c -0.068,0.15 0.01,0.272 0.175,0.272 z"
   style="fill:#333333;fill-opacity:1" />
<g
   id="g8">
</g>
<g
   id="g10">
</g>
<g
   id="g12">
</g>
<g
   id="g14">
</g>
<g
   id="g16">
</g>
<g
   id="g18">
</g>
<g
   id="g20">
</g>
<g
   id="g22">
</g>
<g
   id="g24">
</g>
<g
   id="g26">
</g>
<g
   id="g28">
</g>
<g
   id="g30">
</g>
<g
   id="g32">
</g>
<g
   id="g34">
</g>
<g
   id="g36">
</g>
</svg>