<?xml version="1.0" standalone="no"?>
<!DOCTYPE svg PUBLIC "-//W3C//DTD SVG 20010904//EN"
 "http://www.w3.org/TR/2001/REC-SVG-20010904/DTD/svg10.dtd">
<svg version="1.0" xmlns="http://www.w3.org/2000/svg"
 width="700.000000pt" height="700.000000pt" viewBox="0 0 700.000000 700.000000"
 preserveAspectRatio="xMidYMid meet">
<metadata>
Created by potrace 1.11, written by Peter Selinger 2001-2013
</metadata>
<g transform="translate(0.000000,700.000000) scale(0.100000,-0.100000)"
fill="#000000" stroke="none">
<path d="M2370 6630 c-184 -6 -224 -18 -274 -82 -49 -65 -50 -70 -52 -473 -1
-209 -3 -384 -3 -390 -1 -6 -65 -11 -169 -12 -149 -1 -177 -4 -257 -28 -142
-42 -264 -115 -374 -225 -65 -65 -105 -124 -148 -218 -19 -42 -38 -86 -43 -97
-5 -11 -46 -110 -91 -220 -44 -110 -108 -265 -141 -345 -33 -80 -65 -160 -71
-177 -6 -18 -15 -33 -21 -33 -6 0 -94 23 -196 50 -102 27 -206 50 -231 50
-115 0 -224 -69 -270 -172 -20 -46 -24 -72 -27 -197 -2 -87 1 -169 8 -205 33
-169 172 -293 350 -310 25 -2 46 -5 47 -5 1 -1 -15 -43 -37 -94 -35 -86 -80
-223 -100 -307 -31 -131 -42 -181 -59 -285 -32 -193 -34 -263 -34 -1230 1
-687 4 -931 13 -965 29 -110 111 -207 216 -257 l59 -28 331 0 330 0 67 34
c109 55 194 165 211 271 3 19 6 139 6 267 1 170 4 232 13 235 23 7 4147 2
4154 -5 3 -4 7 -118 8 -255 2 -205 5 -255 19 -292 39 -103 105 -174 206 -223
l65 -32 300 -3 c313 -3 347 0 433 40 46 22 152 119 152 140 0 6 6 19 14 27 7
9 20 43 29 77 13 53 15 193 12 1045 -1 541 -5 995 -8 1009 -4 14 -9 45 -13 70
-5 40 -18 128 -29 185 -2 11 -13 61 -25 110 -12 50 -23 97 -25 105 -11 49 -62
197 -92 268 -19 46 -32 86 -29 89 4 4 21 8 39 9 97 8 174 41 247 110 98 92
124 179 118 399 -3 125 -7 158 -25 196 -47 104 -137 168 -249 176 -48 4 -90
-3 -215 -36 -85 -23 -174 -47 -199 -55 l-45 -13 -159 391 c-238 582 -255 617
-378 733 -53 49 -164 126 -218 150 -95 42 -129 53 -210 69 -19 4 -101 7 -182
8 -81 1 -150 5 -154 9 -4 4 -8 179 -9 390 -1 279 -5 390 -14 412 -23 55 -63
97 -116 122 l-53 24 -1119 2 c-615 1 -1192 0 -1283 -3z m579 -309 c4 -6 6 -34
6 -63 l-1 -53 -117 -3 -116 -3 0 -202 c0 -111 0 -229 0 -262 l-1 -61 -97 1
-98 0 0 257 c0 141 -3 259 -5 262 -3 2 -55 6 -115 8 l-110 3 -3 62 c-2 51 0
62 14 65 47 9 637 -1 643 -11z m407 10 c17 -1 30 -25 78 -148 32 -82 63 -161
71 -178 7 -16 36 -91 65 -165 29 -74 56 -138 59 -142 4 -5 60 57 124 137 l118
146 -114 172 c-63 95 -114 173 -113 174 2 2 149 5 186 4 20 -1 35 -16 73 -78
55 -90 75 -118 81 -112 2 2 29 46 61 97 31 50 60 92 64 93 35 4 185 3 193 -2
7 -4 -32 -72 -96 -167 -58 -89 -108 -167 -111 -174 -3 -7 44 -74 105 -148 61
-74 115 -142 120 -150 7 -14 -4 -16 -93 -14 -56 1 -105 2 -108 3 -5 1 -76 111
-115 179 -10 17 -21 32 -25 32 -4 0 -36 -48 -72 -108 l-66 -107 -200 0 c-110
0 -202 3 -204 5 -2 3 -15 36 -28 75 l-24 70 -115 0 c-63 0 -122 -1 -130 -3 -9
-2 -26 -32 -40 -73 -12 -38 -26 -70 -29 -70 -23 -5 -174 -3 -182 2 -8 5 12 65
52 154 5 11 51 126 103 255 l94 235 68 5 c38 3 83 4 99 3 17 -1 39 -2 51 -2z
m1244 0 l26 -1 -1 -327 0 -328 -95 0 -95 0 -3 320 c-1 176 -1 324 2 330 2 6
33 9 72 8 38 -1 80 -2 94 -2z m530 -971 c133 -41 246 -135 304 -253 37 -76 45
-94 96 -222 18 -44 38 -93 45 -110 7 -16 43 -104 80 -195 38 -91 87 -211 111
-268 24 -57 44 -109 44 -115 0 -7 4 -17 8 -23 5 -5 28 -56 51 -114 24 -58 49
-118 56 -135 56 -128 87 -222 87 -266 -1 -88 -59 -158 -147 -177 -22 -4 -1098
-8 -2391 -8 l-2351 1 -49 30 c-65 40 -94 96 -89 168 4 50 21 95 346 887 33 80
97 235 141 345 45 110 97 224 116 253 62 95 188 180 304 207 32 7 543 10 1620
9 1307 0 1581 -3 1618 -14z m-2974 -2684 c41 -27 62 -54 72 -90 5 -17 8 -155
8 -306 -2 -267 -2 -277 -24 -312 -13 -22 -40 -45 -65 -57 -41 -19 -61 -20
-592 -19 -589 0 -577 -1 -626 51 -11 12 -26 33 -31 47 -15 34 -17 555 -3 598
14 44 59 90 98 100 17 4 279 8 582 7 524 0 553 -1 581 -19z m3861 1 c17 -9 42
-31 55 -49 23 -32 23 -38 26 -320 3 -322 1 -335 -66 -386 l-35 -27 -573 0
c-563 0 -573 0 -600 21 -15 11 -37 33 -48 48 -20 26 -21 40 -21 331 0 291 1
305 21 332 11 15 38 37 60 48 39 20 55 21 594 20 500 -1 558 -3 587 -18z"/>
<path d="M3244 6118 c-4 -13 -20 -50 -35 -82 -16 -33 -29 -65 -29 -71 0 -11
144 -15 155 -4 6 7 -67 179 -77 179 -3 0 -10 -10 -14 -22z"/>
</g>
</svg>
